PathFileType	4	(X/Y/Z)	pose_F01_0-96.trc
DataRate	CameraRate	NumFrames	NumMarkers	Units	OrigDataRate	OrigDataStartFrame	OrigNumFrames
30	30	14	21	m	30	32	96
Frame#	Time	CHip			RHip			RKnee			RAnkle			RBigToe			RSmallToe			RHeel			LHip			LKnee			LAnkle			LBigToe			LSmallToe			LHeel			Neck			Nose			RShoulder			RElbow			RWrist			LShoulder			LElbow			LWrist			
		X1	Y1	Z1	X2	Y2	Z2	X3	Y3	Z3	X4	Y4	Z4	X5	Y5	Z5	X6	Y6	Z6	X7	Y7	Z7	X8	Y8	Z8	X9	Y9	Z9	X10	Y10	Z10	X11	Y11	Z11	X12	Y12	Z12	X13	Y13	Z13	X14	Y14	Z14	X15	Y15	Z15	X16	Y16	Z16	X17	Y17	Z17	X18	Y18	Z18	X19	Y19	Z19	X20	Y20	Z20	X21	Y21	Z21	
32	1.0666666666666667	-0.25064440249613884	1.8384162738504728	-0.6153667005567318	-0.266267449830165	1.839812878838206	-0.5563512533946303																-0.23414968083435234	1.8404139212316584	-0.6743027585981727	-0.24155606341138555	1.7054523666258772	-0.656032372234905													-0.24611428906669303	1.9961094542423228	-0.6492332432633645	-0.24030145182562476	2.0448493086933484	-0.5953300137902519	-0.2682487781384488	1.9958449062905774	-0.575656199277481	-0.2876780086783176	1.9225325195211438	-0.49133201486057426	-0.26615714333942947	1.9839747675448571	-0.5144092657687896	-0.22048437867588172	1.9991993177292724	-0.7275617402102048	-1.1798886589103563	1.8228731010904526	0.203350106473247	-0.19868171304556126	1.8378031171528593	-0.754935447010331
33	1.1	-0.25523410064767804	1.8384914872725568	-0.6109457777937335	-0.27071783522311077	1.8369170344118515	-0.5516948046600282																-0.23653350190925582	1.8390721979945017	-0.6719680965500529	-0.24155606341138555	1.7054523666258772	-0.656032372234905													-0.2524409546332761	1.9950668784238288	-0.6509548391572306	-0.23814185833638132	2.044075573333135	-0.6059858276893876	-0.28085184434014726	1.992174110728751	-0.5711922365611365	-0.28911432137013704	1.9208843826019895	-0.49459293334681453	-0.2811385406848982	1.9805406472306106	-0.5087915783664192	-0.22245189681908917	1.9983800069726685	-0.7335914552741187	-1.1804972155992108	1.8189201506304682	0.19873577983646445	-0.19494805562519182	1.8479175618731698	-0.7551761615660894
34	1.1333333333333333	-0.257528555709934	1.8360618301304366	-0.6168510887329421	-0.27311456648770227	1.8340617950569535	-0.5577447670038075																-0.2377811727522395	1.8392537515093417	-0.6751097869748935	-0.24155606341138555	1.7054523666258772	-0.656032372234905													-0.2546103885222629	1.9950593354922999	-0.648715762471875	-0.23695301853760173	2.042885400224243	-0.6110465984998461	-0.2809224995918768	1.991865998945412	-0.5626926882634741	-0.2926755306529582	1.9216621627042396	-0.4903043987575742	-0.3005697731515655	1.9704114233968433	-0.4590844962515248	-0.22629869568132233	1.9984514979901358	-0.7375067311440734	-1.1596427001285325	1.8225970691241542	0.15154263902977838	-0.19401990925141605	1.8909602529922467	-0.7690924449152267
35	1.1666666666666667	-0.25797609299673924	1.8345882268850868	-0.6201877291854787	-0.27361745722660286	1.8328010635460275	-0.5609466301163996																-0.2390492060468111	1.8378093900436465	-0.6815070306656918	-0.24155606341138555	1.7054523666258772	-0.656032372234905													-0.25417501680961524	1.9942340343510871	-0.6567134141432351	-0.23549668153111492	2.0417534278569653	-0.6242301816436554	-0.2768711303915069	1.992039829553524	-0.5669037728903846	-0.29367545318355404	1.9201469326329843	-0.49316741162434324	-0.3095248754209915	1.9572313994059762	-0.42652369672808244	-0.22670343289030095	1.9992514430761283	-0.7487641722094301	-1.1695891159010188	1.8253960432894898	0.14646446625036497	-0.1930917628776403	1.9340029441113236	-0.783008728264364
36	1.2	-0.2548709314816111	1.83594262087676	-0.6279760460067013	-0.27265474074313767	1.834367406645619	-0.5665721219018883																-0.23976092971151827	1.8394464680964853	-0.6933128143651073	-0.24155606341138555	1.7054523666258772	-0.656032372234905													-0.2516778092689897	1.9954925126298257	-0.6672308259641132	-0.2323914610417242	2.04089956297993	-0.631919116801191	-0.27453927250947596	1.993306786224556	-0.5777059177922945	-0.29132956602169935	1.9240693873541244	-0.5129499447091076	-0.2930823338827276	1.9162888095158908	-0.42159931838184334	-0.22743534162691473	1.998598870522811	-0.7515418261955314	-1.1552073964683698	1.8173734830766133	0.12686318182125478	-0.19216361650386451	1.9770456352304004	-0.7969250116135013
37	1.2333333333333334	-0.25239275205254347	1.837140927429223	-0.6388585377437388	-0.2693160228316062	1.832424898309616	-0.5740708503090916																-0.23694646425107999	1.837157200732053	-0.7041003684663446	-0.21985599582548215	1.7092788292179453	-0.7034257682346253													-0.24844622067984237	1.9933809680467733	-0.6748892675532087	-0.22880477135301241	2.0378326264436804	-0.6475711395798815	-0.26959501012353504	1.9926171753201585	-0.5876212984027608	-0.2912340519246927	1.9211089567898152	-0.5268727236046797	-0.308424685067308	1.8827381914664931	-0.4501016677375701	-0.22478173746996713	1.9969502237836478	-0.7623112824062653	-1.1725637239653854	1.8194218050658284	0.1601312889903703	-0.22471055718384753	1.9582869233335907	-0.764219036672813
38	1.2666666666666666	-0.25137011167391227	1.8361670843309779	-0.6526582667581223	-0.2656680426333046	1.833669134663058	-0.5870950583052927																-0.23265124754356217	1.8381516544257637	-0.7171147330656487	-0.2151047039830618	1.7118175879472517	-0.7249970545597209													-0.243777247548028	1.99389515350007	-0.6878414690663144	-0.22470329273519857	2.0388250329405384	-0.6717260144748255	-0.26718129908150107	1.9905860069057522	-0.5976677715018123	-0.2838588071356864	1.9165914907840393	-0.5463325362131776	-0.2880979659627116	1.8570311612744854	-0.458223232238979	-0.21827996261432497	1.9974114524573396	-0.7804256279899036	-1.1855956336934597	1.8226753950577426	0.1996779427597153	-0.23659803551999303	1.89841700131164	-0.6492609354779906
39	1.3	-0.2472339313866025	1.8367439129232928	-0.6691205358741769	-0.2617321425863375	1.836981768897188	-0.6038635025813109																-0.22927359464265584	1.8398998121714216	-0.7366586405780602	-0.22019718614695027	1.7118971829330867	-0.7565572027077906													-0.24079789969582746	1.993392274222739	-0.7069120523319873	-0.22303048450816484	2.0392326217512204	-0.6855830217912517	-0.262769907139374	1.9902109260143992	-0.6190556173153363	-0.27864030080016294	1.9094271035002675	-0.5723723896082704	-0.2814667499432112	1.8433305084311906	-0.48880545973428546	-0.21418959578794894	1.9954384853869254	-0.7962622355141347	-1.2034060466809617	1.8249014341141103	0.2283545051572037	-0.22593902098648477	1.8782786781432677	-0.6562195896311049
40	1.3333333333333333	-0.2410950035300535	1.8360530724736042	-0.6994743226298509	-0.25606528754116653	1.8360702361920698	-0.6326830782849024																-0.22171922685996612	1.8371238550214455	-0.7636255267110086	-0.22019718614695027	1.7118971829330867	-0.7565572027077906													-0.23671269480101972	1.9924168863096288	-0.722674120936957	-0.2200125959813785	2.0394581308907123	-0.7046834462267052	-0.2611151219329934	1.9925135867761923	-0.6417443042719937	-0.27790063566813333	1.912197114065059	-0.6067253652306864	-0.27933975593651944	1.8441322192133076	-0.5345113178936141	-0.20557682988782974	1.9954238027089801	-0.8083111161618455	-1.2061546393314402	1.8209465433964083	0.2407236161428812	-0.19945406269043062	1.8518755201039074	-0.6921127087307277
41	1.3666666666666667	-0.23461271051183727	1.8386693981963955	-0.7267998021052972	-0.25039843249599564	1.8351587034869514	-0.6615026539884941																-0.21673245043354003	1.8396452485468169	-0.7886653104762654	-0.22019718614695027	1.7118971829330867	-0.7565572027077906													-0.22820009777217506	1.994032760473012	-0.7429940532992598	-0.21380197435653084	2.041819517480406	-0.7229821873922423	-0.2560155726632536	1.990672185327002	-0.6622388160778068	-0.27327238278941807	1.9094950581466534	-0.6193117214268294	-0.2686495641691869	1.844282665614907	-0.5632746365950614	-0.19880688313497707	1.9981393012966606	-0.8266599619865513	-1.1287473430971289	1.8160838526543497	0.11516577562458646	-0.17441884506243352	1.853545920098253	-0.7522182213798717
42	1.4	-0.23124438264146382	1.8382643876929041	-0.7460536307777894	-0.24834586849816617	1.8368262646339546	-0.6841097668497038																-0.21082208305102862	1.8416039725927527	-0.8101720274732165	-0.22019718614695027	1.7118971829330867	-0.7565572027077906													-0.22788088475520013	1.995397022528165	-0.7628770353751567	-0.20916361588765925	2.041280251096443	-0.7468683501118607	-0.25170807199994294	1.9909102139586812	-0.6755153417560565	-0.2685065427759718	1.9116844245765825	-0.6411214001124038	-0.25882417497413335	1.8465677051080607	-0.5866396217654342	-0.2002910044727187	2.0001621589601113	-0.855239508363156	-1.0536258715692235	1.812822452946071	-0.014383918756345178	-0.5464113260027423	1.8082926022744288	-0.47437375108080954
43	1.4333333333333333	-0.2294419028475595	1.8378409226135575	-0.7599582265329736	-0.2459024033772732	1.836823740033425	-0.6949074864186462																-0.20920595508213646	1.8424288008100242	-0.8275004347675555	-0.22019718614695027	1.7118971829330867	-0.7565572027077906													-0.22759895944539846	1.997370832210748	-0.7827386503112285	-0.2071330182961946	2.043171213099011	-0.7608522421701437	-0.25288703928554734	1.9932017946500564	-0.6900680936739955	-0.26690056075996704	1.9127459922586247	-0.6549634847552448	-0.24921137258228848	1.853533452298668	-0.613951890733986	-0.19713964264967632	2.0033074077526765	-0.8771671122380593	-1.0070499955028658	1.8194388613770691	-0.10309158896847433	-0.9184038069430512	1.7630392844506044	-0.1965292807817474
44	1.4666666666666666	-0.22763942305365517	1.8374174575342108	-0.7738628222881578	-0.24345893825638026	1.8368212154328958	-0.7057052059875885																-0.21118366391779259	1.8397922359791512	-0.8334149284373618	-0.22019718614695027	1.7118971829330867	-0.7565572027077906													-0.2247327700092542	1.9984343560477928	-0.7933701437731153	-0.20734497836660562	2.044264288003035	-0.7722071883510834	-0.2524131473885286	1.9942674468946526	-0.6985590819864136	-0.26655915546840603	1.9149044863774989	-0.6638274056097346	-0.2398396290064774	1.8940690065884938	-0.6476473886061627	-0.19704398688727737	2.004252698390292	-0.8882856922577987	-0.9706110784177897	1.825913485998248	-0.17342409127486186	-0.16408987879964584	1.8479809794821755	-0.932205192741205
45	1.5	-0.22609204293454704	1.8399954988155165	-0.7794724999749456	-0.24202187827532035	1.8391966910723783	-0.7114092343196801																-0.21156334686711042	1.8430968631472784	-0.8408495566023542	-0.22019718614695027	1.7118971829330867	-0.7565572027077906													-0.2248546625734152	1.9989691918409196	-0.8045612077457361	-0.20764163949704864	2.0454213155737255	-0.7837510415905156	-0.24985713566658987	1.9940276104844057	-0.708987733535352	-1.342149179426812	1.824522877944132	0.4195298191783275	-0.23046788543066635	1.9346045608783193	-0.6813428864783394	-0.19998559053496143	2.004999801053435	-0.9000806135583329	-0.9512965785659658	1.8182457846690934	-0.21899061452977742	-0.8421806769890372	1.748729966740522	-0.3344404521842271
